<svg xmlns="http://www.w3.org/2000/svg">
  <symbol id="mini-arrow" aria-hidden="true" stroke="currentColor" fill="none" viewBox="0 0 24 24">
    <path stroke-linecap="round" stroke-linejoin="round" stroke-width="2" d="M12 6v13m0-13 4 4m-4-4-4 4"></path>
  </symbol>
  <symbol id="check" aria-hidden="true" fill="none" viewBox="0 0 24 24" stroke="currentColor">
    <path stroke="currentColor" stroke-linecap="round" stroke-linejoin="round" stroke-width="2" d="M5 11.917 9.724 16.5 19 7.5"/>
  </symbol>
  <svg id="uncheck" aria-hidden="true" fill="none" viewBox="0 0 24 24" stroke="currentColor">
    <rect width="12" height="12" x="6" y="6" stroke="currentColor" stroke-linejoin="round" stroke-width="2" rx="1"/>
  </svg>
  <svg id="clip" aria-hidden="true" fill="none" viewBox="0 0 24 24">
    <path stroke="currentColor" stroke-linecap="round" stroke-linejoin="round" stroke-width="2" d="M7 8v8a5 5 0 1 0 10 0V6.5a3.5 3.5 0 1 0-7 0V15a2 2 0 0 0 4 0V8"/>
  </svg>
  <symbol id="send" aria-hidden="true" viewBox="0 0 18 20">
    <path d="m17.914 18.594-8-18a1 1 0 0 0-1.828 0l-8 18a1 1 0 0 0 1.157 1.376L8 18.281V9a1 1 0 0 1 2 0v9.281l6.758 1.689a1 1 0 0 0 1.156-1.376Z"></path>
  </symbol>
  <symbol id="trash" viewBox="0 0 20 20">
    <path fill-rule="evenodd" d="M9 2a1 1 0 00-.894.553L7.382 4H4a1 1 0 000 2v10a2 2 0 002 2h8a2 2 0 002-2V6a1 1 0 100-2h-3.382l-.724-1.447A1 1 0 0011 2H9zM7 8a1 1 0 012 0v6a1 1 0 11-2 0V8zm5-1a1 1 0 00-1 1v6a1 1 0 102 0V8a1 1 0 00-1-1z" clip-rule="evenodd"></path>
  </symbol>
  <symbol id="edit" aria-hidden="true" viewBox="0 0 20 20">
    <path d="M17.414 2.586a2 2 0 00-2.828 0L7 10.172V13h2.828l7.586-7.586a2 2 0 000-2.828z"></path>
    <path fill-rule="evenodd" d="M2 6a2 2 0 012-2h4a1 1 0 010 2H4v10h10v-4a1 1 0 112 0v4a2 2 0 01-2 2H4a2 2 0 01-2-2V6z" clip-rule="evenodd"></path>
  </symbol>
  <symbol id="message" aria-hidden="true" viewBox="0 0 24 24">
    <path d="M2.038 5.61A2.01 2.01 0 0 0 2 6v12a2 2 0 0 0 2 2h16a2 2 0 0 0 2-2V6c0-.12-.01-.238-.03-.352l-.866.65-7.89 6.032a2 2 0 0 1-2.429 0L2.884 6.288l-.846-.677Z"/>
    <path d="M20.677 4.117A1.996 1.996 0 0 0 20 4H4c-.225 0-.44.037-.642.105l.758.607L12 10.742 19.9 4.7l.777-.583Z"/>
  </symbol>
  <symbol id="close" fill="currentColor" viewBox="0 0 20 20">
    <path fill-rule="evenodd" d="M4.293 4.293a1 1 0 011.414 0L10 8.586l4.293-4.293a1 1 0 111.414 1.414L11.414 10l4.293 4.293a1 1 0 01-1.414 1.414L10 11.414l-4.293 4.293a1 1 0 01-1.414-1.414L8.586 10 4.293 5.707a1 1 0 010-1.414z" clip-rule="evenodd"></path>
  </symbol>
  <symbol id="menu" fill="currentColor" viewBox="0 0 20 20">
    <path fill-rule="evenodd" d="M3 5a1 1 0 011-1h12a1 1 0 110 2H4a1 1 0 01-1-1zM3 10a1 1 0 011-1h6a1 1 0 110 2H4a1 1 0 01-1-1zM3 15a1 1 0 011-1h12a1 1 0 110 2H4a1 1 0 01-1-1z" clip-rule="evenodd"></path>
  </symbol>
</svg>