<svg width="90" height="90" style="padding: 6px 0; background: #48C929" viewBox="0 0 272 416" fill="none" xmlns="http://www.w3.org/2000/svg">
  <path d="M199.493 400.072C197.692 400.072 196.232 398.612 196.232 396.811C196.232 395.574 196.921 394.498 197.936 393.945L227.091 376.869C227.096 376.866 227.101 376.864 227.106 376.859C228.355 376.129 229.985 376.3 231.056 377.371C232.329 378.645 232.329 380.71 231.056 381.983C230.843 382.196 230.602 382.378 230.343 382.522L201.154 399.619C200.653 399.912 200.079 400.072 199.493 400.072ZM164.43 410.687L249.409 363.227C249.671 363.08 249.913 362.898 250.124 362.685L250.129 362.68C251.403 361.406 251.4 359.344 250.126 358.07C249.053 356.996 247.415 356.83 246.163 357.568L161.368 404.926C160.304 405.462 159.576 406.565 159.576 407.839C159.576 409.641 161.038 411.1 162.839 411.1C163.396 411.101 163.944 410.959 164.43 410.687ZM137.858 414.361L257.29 350.925C258.88 350.081 259.485 348.106 258.639 346.515C257.795 344.924 255.822 344.321 254.23 345.165L134.799 408.602C133.209 409.446 132.603 411.42 133.449 413.011C134.035 414.115 135.164 414.743 136.332 414.743C136.848 414.744 137.372 414.62 137.858 414.361ZM113.46 415.498L262.103 340.592C263.711 339.782 264.359 337.82 263.547 336.212C262.737 334.604 260.777 333.955 259.167 334.768L110.524 409.674C108.916 410.484 108.269 412.445 109.079 414.054C109.652 415.191 110.801 415.848 111.994 415.848C112.489 415.848 112.989 415.735 113.46 415.498ZM90.2941 414.719L265.131 331.375C266.296 330.878 267.113 329.722 267.113 328.374C267.113 326.572 265.65 325.113 263.849 325.113C263.363 325.113 262.884 325.221 262.445 325.431L87.4874 408.833C85.8614 409.608 85.1716 411.554 85.9471 413.18C86.5067 414.352 87.6747 415.038 88.8934 415.038C89.3632 415.037 89.8413 414.935 90.2941 414.719ZM68.2445 412.172L267.321 322.704C268.964 321.966 269.697 320.036 268.959 318.393C268.22 316.751 266.291 316.015 264.648 316.755L65.57 406.224C63.927 406.962 63.1939 408.892 63.9323 410.535C64.4761 411.743 65.6642 412.46 66.9083 412.46C67.3569 412.46 67.8107 412.368 68.2445 412.172ZM47.3511 407.947L268.58 314.543C270.239 313.843 271.016 311.929 270.316 310.27C269.616 308.611 267.705 307.834 266.043 308.534L44.8153 401.938C43.1564 402.638 42.3788 404.552 43.0792 406.211C43.605 407.456 44.8132 408.205 46.0848 408.205C46.508 408.204 46.9375 408.122 47.3511 407.947ZM27.6903 402.1L269.232 306.695C270.906 306.033 271.728 304.139 271.067 302.464C270.406 300.789 268.513 299.967 266.835 300.628L25.2941 396.032C23.6193 396.695 22.7973 398.588 23.4585 400.264C23.9653 401.546 25.1936 402.328 26.4928 402.328C26.8916 402.328 27.2978 402.254 27.6903 402.1ZM170.248 335.523L269.366 299.08C271.057 298.458 271.923 296.585 271.301 294.894C270.679 293.205 268.807 292.336 267.115 292.959L167.926 329.429C167.835 329.462 167.745 329.499 167.658 329.541C166.549 330.061 165.78 331.188 165.78 332.496C165.78 334.297 167.24 335.756 169.04 335.756C169.458 335.755 169.867 335.675 170.248 335.523ZM17.5616 391.674L147.614 343.849C149.304 343.227 150.171 341.354 149.549 339.663C148.926 337.973 147.052 337.106 145.362 337.728L15.3092 385.552C13.6186 386.175 12.7522 388.048 13.3742 389.739C13.8598 391.058 15.1071 391.876 16.4349 391.876C16.8104 391.875 17.1902 391.81 17.5616 391.674ZM16.5745 377.583L110.446 345.62C112.151 345.041 113.062 343.187 112.482 341.483C111.903 339.777 110.05 338.865 108.344 339.447L14.4724 371.41C12.767 371.99 11.8561 373.843 12.4358 375.547C12.8981 376.904 14.1656 377.759 15.5229 377.759C15.871 377.759 16.2254 377.703 16.5745 377.583ZM183.628 320.703L269.063 291.616C270.769 291.036 271.68 289.182 271.1 287.478C270.519 285.772 268.666 284.863 266.961 285.441L181.526 314.528C179.821 315.109 178.91 316.962 179.49 318.667C179.953 320.024 181.219 320.878 182.576 320.878C182.926 320.878 183.28 320.822 183.628 320.703ZM15.5843 363.448L83.7222 342.101C85.4414 341.562 86.3978 339.733 85.8593 338.014C85.3208 336.295 83.4905 335.337 81.7724 335.877L13.6345 357.224C11.9153 357.762 10.959 359.592 11.4975 361.311C11.9344 362.705 13.2208 363.598 14.6088 363.598C14.9315 363.598 15.2605 363.55 15.5843 363.448ZM186.836 309.802L268.389 284.253C270.109 283.715 271.065 281.886 270.527 280.166C269.989 278.448 268.16 277.492 266.44 278.029L184.886 303.578C183.168 304.116 182.21 305.945 182.749 307.664C183.185 309.059 184.472 309.952 185.859 309.952C186.182 309.952 186.511 309.903 186.836 309.802ZM14.593 349.257L60.183 336.216C61.9148 335.721 62.9167 333.916 62.4216 332.184C61.9265 330.453 60.1205 329.448 58.3897 329.946L12.7997 342.986C11.0679 343.481 10.066 345.286 10.5612 347.018C10.9706 348.45 12.2761 349.383 13.6948 349.383C13.991 349.383 14.2936 349.342 14.593 349.257ZM187.137 299.905L267.359 276.96C269.091 276.465 270.093 274.66 269.598 272.928C269.103 271.196 267.297 270.192 265.566 270.689L185.344 293.634C183.612 294.129 182.61 295.934 183.105 297.666C183.515 299.098 184.82 300.031 186.239 300.031C186.536 300.031 186.838 299.99 187.137 299.905ZM13.59 335.014L36.3083 329.133C37.7704 328.812 38.8622 327.508 38.8622 325.949C38.8622 324.147 37.3991 322.688 35.5985 322.688C35.3224 322.688 35.0483 322.723 34.7817 322.792L11.9566 328.701C10.2131 329.152 9.16573 330.931 9.61641 332.675C9.99727 334.145 11.3208 335.12 12.7712 335.12C13.041 335.12 13.316 335.086 13.59 335.014ZM185.335 290.571L265.921 269.719C267.665 269.269 268.712 267.489 268.262 265.746C267.811 264.002 266.031 262.953 264.288 263.405L183.701 284.256C181.958 284.707 180.91 286.487 181.361 288.23C181.741 289.7 183.065 290.675 184.516 290.675C184.785 290.676 185.061 290.642 185.335 290.571ZM180.992 281.731L264.019 262.509C265.773 262.103 266.867 260.351 266.461 258.596C266.056 256.842 264.307 255.748 262.549 256.154L179.521 275.376C177.767 275.782 176.673 277.534 177.079 279.289C177.429 280.796 178.77 281.816 180.254 281.816C180.497 281.816 180.744 281.788 180.992 281.731ZM173.217 273.356L261.555 255.309C263.32 254.948 264.458 253.226 264.097 251.461C263.738 249.698 262.019 248.557 260.25 248.919L171.911 266.966C170.147 267.327 169.008 269.05 169.369 270.814C169.684 272.359 171.044 273.423 172.561 273.423C172.777 273.423 172.997 273.402 173.217 273.356ZM161.805 265.207L258.416 248.1C260.189 247.786 261.373 246.094 261.059 244.32C260.745 242.547 259.054 241.365 257.279 241.677L160.668 258.783C158.894 259.098 157.711 260.789 158.025 262.563C158.304 264.145 159.68 265.256 161.232 265.256C161.421 265.258 161.612 265.241 161.805 265.207ZM146.074 257.084L254.416 240.853C256.198 240.587 257.425 238.926 257.158 237.145C256.892 235.364 255.228 234.135 253.45 234.403L145.108 250.634C143.327 250.901 142.1 252.56 142.366 254.342C142.608 255.96 144 257.12 145.587 257.12C145.748 257.12 145.911 257.109 146.074 257.084ZM126.436 248.584L249.345 233.515C251.132 233.296 252.404 231.669 252.185 229.881C251.966 228.094 250.343 226.824 248.551 227.041L125.642 242.109C123.854 242.328 122.583 243.955 122.803 245.743C123.005 247.397 124.412 248.608 126.036 248.608C126.167 248.608 126.301 248.6 126.436 248.584ZM103.86 239.298L243.122 226.023C244.915 225.852 246.23 224.26 246.058 222.467C245.887 220.675 244.294 219.37 242.503 219.53L103.241 232.804C101.448 232.976 100.133 234.567 100.304 236.36C100.465 238.048 101.885 239.312 103.547 239.312C103.651 239.313 103.755 239.308 103.86 239.298ZM80.2024 228.857L235.299 218.299C237.021 218.211 238.389 216.787 238.389 215.043C238.389 213.241 236.927 211.782 235.126 211.782C235.052 211.782 234.979 211.784 234.904 211.789L79.7602 222.351C77.9628 222.473 76.6054 224.029 76.7281 225.826C76.8455 227.548 78.278 228.867 79.9781 228.867C80.0522 228.865 80.1273 228.863 80.2024 228.857ZM58.5283 217.05L225.393 210.233C227.192 210.16 228.592 208.641 228.518 206.841C228.444 205.042 226.938 203.646 225.126 203.716L58.2618 210.533C56.4622 210.606 55.0635 212.125 55.1365 213.924C55.2085 215.678 56.6526 217.052 58.3929 217.052C58.4373 217.053 58.4828 217.052 58.5283 217.05ZM40.7517 204.011L212.126 201.674L212.131 198.413L212.081 195.152L40.6628 197.49C38.8612 197.515 37.4213 198.995 37.4467 200.795C37.471 202.581 38.9257 204.012 40.7062 204.012C40.721 204.011 40.7369 204.011 40.7517 204.011ZM198.335 189.135C198.359 187.334 196.919 185.854 195.118 185.83L27.1836 183.541C25.3745 183.498 23.9029 184.957 23.8786 186.757C23.8542 188.558 25.2941 190.038 27.0947 190.062L195.03 192.351C195.045 192.351 195.06 192.351 195.075 192.351C196.855 192.352 198.31 190.92 198.335 189.135ZM175.545 178.6C175.545 176.838 174.146 175.402 172.399 175.34L17.3034 169.003C15.5092 168.932 13.9857 170.329 13.9117 172.128C13.8376 173.928 15.2372 175.446 17.0368 175.52L172.148 181.858C172.193 181.86 172.237 181.861 172.282 181.861H172.287C174.089 181.861 175.545 180.401 175.545 178.6ZM145.838 166.396C145.838 164.66 144.48 163.241 142.769 163.141L10.4924 154.136C8.69177 154.005 7.13973 155.371 7.01701 157.168C6.89429 158.964 8.25166 160.52 10.0491 160.643L142.352 169.65C142.426 169.656 142.501 169.658 142.574 169.658H142.58C144.382 169.657 145.838 168.197 145.838 166.396ZM115.435 152.818C115.607 151.024 114.292 149.432 112.498 149.262L6.53782 139.162C4.74038 138.991 3.15238 140.306 2.98205 142.098C2.81066 143.892 4.12569 145.484 5.9189 145.654L111.879 155.754C111.985 155.765 112.089 155.769 112.193 155.769C113.854 155.769 115.274 154.505 115.435 152.818ZM96.9539 138.825C97.1729 137.037 95.9013 135.41 94.1144 135.191L4.61339 124.221C2.82229 124 1.19835 125.274 0.979356 127.062C0.760362 128.85 2.03203 130.477 3.8189 130.696L93.3199 141.666C93.4543 141.683 93.5886 141.69 93.7208 141.69C95.3458 141.69 96.7519 140.479 96.9539 138.825ZM90.0551 125.562C90.3217 123.78 89.0944 122.12 87.3129 121.854L4.24204 109.406C2.46364 109.14 0.800542 110.366 0.53394 112.148C0.267338 113.93 1.4946 115.59 3.27617 115.856L86.347 128.304C86.511 128.328 86.6739 128.34 86.8347 128.34C88.4216 128.34 89.8128 127.179 90.0551 125.562ZM88.6988 112.9C89.013 111.127 87.8302 109.434 86.056 109.12L5.48621 94.8507C3.71098 94.5343 2.02039 95.7192 1.70618 97.4934C1.39197 99.2665 2.57473 100.959 4.34891 101.273L84.9187 115.543C85.1113 115.577 85.3028 115.594 85.4911 115.594C87.0431 115.593 88.4184 114.481 88.6988 112.9ZM90.9871 100.911C91.3479 99.1459 90.2095 97.4236 88.4449 97.0628L8.53839 80.7387C6.77479 80.3769 5.05138 81.5163 4.69062 83.2809C4.32986 85.0456 5.46822 86.768 7.23287 87.1287L87.1393 103.453C87.3594 103.497 87.5794 103.519 87.7953 103.519C89.3134 103.52 90.6718 102.455 90.9871 100.911ZM97.4649 90.0137C97.8711 88.2586 96.7783 86.5077 95.0232 86.1014L13.5403 67.233C11.7852 66.8267 10.0343 67.9196 9.627 69.6748C9.22075 71.4299 10.3136 73.1808 12.0687 73.5881L93.5516 92.4565C93.7991 92.5137 94.0467 92.5411 94.29 92.5411C95.7743 92.5401 97.1168 91.5213 97.4649 90.0137ZM109.507 80.9133C109.959 79.1698 108.911 77.3903 107.167 76.9396L20.5799 54.5335C18.8364 54.0828 17.057 55.1301 16.6052 56.8736C16.1535 58.6171 17.2019 60.3966 18.9454 60.8483L105.533 83.2545C105.807 83.3254 106.082 83.3593 106.352 83.3593C107.803 83.3593 109.128 82.3838 109.507 80.9133ZM130.597 74.1223C130.597 72.6063 129.561 71.3325 128.159 70.9665L29.6454 42.7861C29.3534 42.7025 29.0466 42.6601 28.743 42.6601C26.9413 42.6601 25.4845 44.1201 25.4845 45.9218C25.4845 47.4378 26.5202 48.7116 27.922 49.0776L126.436 77.2581C126.728 77.3417 127.029 77.384 127.333 77.384H127.338C129.14 77.384 130.597 75.924 130.597 74.1223ZM170.737 75.2861C170.737 73.8018 169.745 72.5481 168.387 72.1546L40.7792 32.1833C39.06 31.6448 37.2309 32.6012 36.6924 34.3204C36.1539 36.0395 37.1113 37.8687 38.8294 38.4072L166.472 78.3891C166.795 78.4927 167.134 78.5477 167.475 78.5477C169.278 78.5477 170.737 77.0867 170.737 75.2861ZM231.189 86.6706C231.77 84.9652 230.858 83.1127 229.154 82.5319L53.9622 22.884C52.2568 22.3042 50.4044 23.2151 49.8246 24.9205C49.2438 26.6259 50.1558 28.4784 51.8601 29.0582L227.051 88.7061C227.399 88.8246 227.754 88.8807 228.103 88.8807C229.46 88.8817 230.727 88.0269 231.189 86.6706ZM233.788 79.0534C234.41 77.3628 233.544 75.4892 231.853 74.8671L69.1258 15.0298C67.4362 14.4099 65.5615 15.2753 64.9394 16.9648C64.3174 18.6554 65.1849 20.529 66.8745 21.1511L229.602 80.9884C229.973 81.1249 230.353 81.1894 230.727 81.1894C232.055 81.1894 233.303 80.3727 233.788 79.0534ZM236.343 71.5589C237.005 69.8842 236.182 67.9894 234.508 67.3282L86.2073 8.75201C84.5315 8.0908 82.6378 8.91171 81.9766 10.5864C81.3154 12.2612 82.1363 14.156 83.8111 14.8172L232.112 73.3934C232.505 73.5489 232.91 73.6219 233.309 73.6219C234.608 73.623 235.837 72.8411 236.343 71.5589ZM238.853 64.1829C239.553 62.5241 238.776 60.6103 237.117 59.9099L105.14 4.18698C103.482 3.48662 101.569 4.26314 100.867 5.92306C100.167 7.58191 100.944 9.49574 102.603 10.1961L234.58 65.919C234.994 66.0936 235.424 66.1772 235.847 66.1772C237.119 66.1761 238.327 65.4281 238.853 64.1829ZM241.323 56.9233C242.062 55.2803 241.328 53.3506 239.685 52.6122L125.788 1.42253C124.145 0.684089 122.216 1.41728 121.477 3.06027C120.739 4.70326 121.472 6.63289 123.115 7.37134L237.012 58.5611C237.446 58.7557 237.9 58.8488 238.346 58.8488C239.591 58.8488 240.78 58.1326 241.323 56.9233ZM243.749 49.7875C244.524 48.1614 243.835 46.2159 242.209 45.4404L147.881 0.469326C146.256 -0.304031 144.31 0.383626 143.534 2.00969C142.759 3.63575 143.448 5.58131 145.075 6.35679L239.402 51.3279C239.856 51.5437 240.333 51.6463 240.804 51.6463C242.021 51.6463 243.19 50.9608 243.749 49.7875ZM246.142 42.7522C246.952 41.1441 246.306 39.1827 244.697 38.3723L171.868 1.67436C170.26 0.862921 168.298 1.51141 167.488 3.11948C166.678 4.72756 167.324 6.689 168.933 7.49938L241.762 44.1973C242.233 44.4343 242.733 44.5465 243.226 44.5465C244.42 44.5465 245.569 43.8906 246.142 42.7522ZM248.491 35.8354C249.336 34.2442 248.732 32.2701 247.141 31.4258L199.761 6.25315C198.546 5.57924 196.988 5.7358 195.929 6.74402C194.624 7.98605 194.575 10.0501 195.817 11.3545C196.07 11.619 196.364 11.838 196.684 12.0041L244.081 37.1853C244.569 37.4445 245.091 37.5672 245.609 37.5672C246.776 37.5672 247.905 36.9377 248.491 35.8354ZM250.806 29.0254C251.685 27.4532 251.123 25.4664 249.55 24.5873L232.65 15.1451C232.624 15.1303 232.598 15.1166 232.572 15.1028C232.106 14.8574 231.584 14.7252 231.049 14.7252C229.248 14.7252 227.789 16.1851 227.789 17.9867C227.789 19.2383 228.493 20.3259 229.528 20.8718L246.369 30.2811C246.873 30.5626 247.418 30.6958 247.956 30.6958C249.1 30.6958 250.209 30.0939 250.806 29.0254Z" fill="white"/>
</svg>
    