<svg width="162" height="248" viewBox="0 0 162 248" fill="none" xmlns="http://www.w3.org/2000/svg">
<path d="M118.67 237.909C117.602 237.909 116.736 237.043 116.736 235.975C116.736 235.241 117.144 234.603 117.746 234.274L135.043 224.143C135.047 224.141 135.05 224.14 135.053 224.138C135.794 223.704 136.761 223.806 137.396 224.441C138.152 225.197 138.152 226.422 137.396 227.177C137.27 227.304 137.127 227.412 136.973 227.497L119.655 237.641C119.358 237.815 119.018 237.909 118.67 237.909ZM97.8671 244.207L148.285 216.049C148.44 215.962 148.584 215.854 148.709 215.728L148.712 215.725C149.468 214.969 149.466 213.746 148.71 212.99C148.074 212.353 147.102 212.255 146.359 212.692L96.0507 240.789C95.4192 241.107 94.9874 241.762 94.9874 242.518C94.9874 243.587 95.8548 244.452 96.9238 244.452C97.2539 244.453 97.579 244.369 97.8671 244.207ZM82.1026 246.387L152.96 208.751C153.904 208.25 154.263 207.079 153.761 206.135C153.26 205.191 152.09 204.833 151.145 205.334L80.2873 242.97C79.3439 243.471 78.9849 244.642 79.4864 245.586C79.8342 246.241 80.5039 246.614 81.1969 246.614C81.5032 246.615 81.8139 246.541 82.1026 246.387ZM67.6272 247.061L155.816 202.62C156.77 202.14 157.154 200.976 156.673 200.022C156.192 199.068 155.029 198.683 154.074 199.165L65.8854 243.606C64.9314 244.087 64.5473 245.251 65.028 246.205C65.3682 246.879 66.0499 247.269 66.7573 247.269C67.051 247.269 67.3479 247.202 67.6272 247.061ZM53.8831 246.599L157.613 197.152C158.304 196.857 158.788 196.171 158.788 195.371C158.788 194.303 157.921 193.437 156.852 193.437C156.564 193.437 156.279 193.501 156.019 193.625L52.2179 243.107C51.2532 243.567 50.844 244.721 51.304 245.686C51.6361 246.382 52.329 246.789 53.0521 246.789C53.3308 246.788 53.6145 246.727 53.8831 246.599ZM40.8012 245.089L158.912 192.008C159.887 191.57 160.322 190.425 159.884 189.45C159.445 188.476 158.301 188.039 157.326 188.478L39.2144 241.559C38.2397 241.997 37.8047 243.142 38.2428 244.117C38.5654 244.834 39.2703 245.259 40.0085 245.259C40.2746 245.259 40.5439 245.205 40.8012 245.089ZM28.4053 242.582L159.659 187.166C160.643 186.75 161.104 185.615 160.689 184.631C160.273 183.647 159.14 183.185 158.154 183.601L26.9008 239.017C25.9166 239.432 25.4553 240.567 25.8708 241.552C26.1828 242.29 26.8996 242.735 27.654 242.735C27.9051 242.734 28.1599 242.685 28.4053 242.582ZM16.7407 239.113L160.045 182.51C161.039 182.117 161.527 180.993 161.134 179.999C160.742 179.006 159.619 178.518 158.624 178.91L15.319 235.513C14.3254 235.906 13.8377 237.029 14.23 238.024C14.5307 238.784 15.2594 239.248 16.0302 239.248C16.2668 239.248 16.5078 239.204 16.7407 239.113ZM101.319 199.613L160.125 177.992C161.128 177.623 161.642 176.511 161.273 175.508C160.904 174.506 159.794 173.99 158.79 174.36L99.9416 195.997C99.8876 196.017 99.8343 196.039 99.7828 196.064C99.1244 196.373 98.6681 197.041 98.6681 197.817C98.6681 198.886 99.5343 199.751 100.603 199.751C100.85 199.751 101.093 199.703 101.319 199.613ZM10.7314 232.927L87.8903 204.553C88.8934 204.184 89.4074 203.072 89.0383 202.069C88.6693 201.066 87.557 200.552 86.5546 200.921L9.39506 229.295C8.39204 229.664 7.87799 230.776 8.24706 231.779C8.53516 232.562 9.27519 233.047 10.0629 233.047C10.2857 233.046 10.5111 233.008 10.7314 232.927ZM10.1458 224.567L65.839 205.604C66.8508 205.26 67.3912 204.16 67.0472 203.149C66.7033 202.137 65.6042 201.596 64.5918 201.941L8.8986 220.904C7.8868 221.248 7.34634 222.348 7.6903 223.359C7.9646 224.164 8.71656 224.671 9.52186 224.671C9.72837 224.671 9.93865 224.638 10.1458 224.567ZM109.257 190.82L159.946 173.563C160.957 173.219 161.498 172.119 161.154 171.108C160.809 170.096 159.71 169.557 158.698 169.9L108.01 187.157C106.999 187.502 106.458 188.601 106.803 189.613C107.077 190.418 107.828 190.924 108.634 190.924C108.841 190.924 109.051 190.891 109.257 190.82ZM9.55826 216.181L49.984 203.515C51.004 203.196 51.5714 202.111 51.2519 201.091C50.9324 200.071 49.8466 199.503 48.8272 199.823L8.40145 212.488C7.38149 212.808 6.8141 213.893 7.13358 214.913C7.39281 215.74 8.15604 216.27 8.97955 216.27C9.17099 216.27 9.36619 216.241 9.55826 216.181ZM111.161 184.353L159.546 169.195C160.566 168.876 161.133 167.79 160.814 166.77C160.495 165.751 159.41 165.184 158.389 165.502L110.004 180.66C108.984 180.98 108.416 182.065 108.736 183.085C108.995 183.912 109.758 184.442 110.581 184.442C110.773 184.442 110.968 184.413 111.161 184.353ZM8.97013 207.761L36.0184 200.024C37.0458 199.731 37.6403 198.66 37.3465 197.632C37.0528 196.605 35.9813 196.009 34.9544 196.304L7.90622 204.041C6.87872 204.335 6.28434 205.405 6.57809 206.433C6.821 207.283 7.59553 207.836 8.43723 207.836C8.61298 207.836 8.79249 207.812 8.97013 207.761ZM111.339 178.481L158.934 164.868C159.962 164.574 160.556 163.503 160.263 162.476C159.969 161.448 158.897 160.853 157.871 161.148L110.276 174.761C109.248 175.054 108.654 176.125 108.947 177.153C109.19 178.003 109.965 178.556 110.807 178.556C110.983 178.556 111.162 178.532 111.339 178.481ZM8.37509 199.311L21.8537 195.822C22.7211 195.631 23.3689 194.858 23.3689 193.933C23.3689 192.864 22.5008 191.998 21.4326 191.998C21.2687 191.998 21.1061 192.019 20.948 192.06L7.40597 195.565C6.37157 195.833 5.75019 196.889 6.01757 197.924C6.24354 198.795 7.02875 199.374 7.88929 199.374C8.04934 199.374 8.21253 199.354 8.37509 199.311ZM110.27 172.944L158.082 160.572C159.116 160.305 159.737 159.249 159.47 158.215C159.203 157.18 158.147 156.558 157.112 156.826L109.301 169.197C108.266 169.464 107.645 170.52 107.912 171.554C108.138 172.426 108.924 173.005 109.784 173.005C109.944 173.006 110.107 172.986 110.27 172.944ZM107.693 167.699L156.953 156.295C157.994 156.053 158.643 155.014 158.402 153.973C158.161 152.932 157.124 152.283 156.08 152.524L106.821 163.928C105.78 164.169 105.131 165.209 105.372 166.25C105.579 167.144 106.375 167.749 107.256 167.749C107.4 167.749 107.546 167.733 107.693 167.699ZM103.081 162.73L155.491 152.023C156.538 151.809 157.213 150.787 156.999 149.74C156.786 148.693 155.766 148.017 154.717 148.231L102.306 158.939C101.259 159.153 100.584 160.175 100.798 161.222C100.985 162.138 101.791 162.77 102.691 162.77C102.819 162.77 102.95 162.757 103.081 162.73ZM96.3099 157.895L153.629 147.746C154.681 147.559 155.383 146.556 155.197 145.503C155.01 144.451 154.007 143.75 152.954 143.935L95.6352 154.084C94.5832 154.27 93.8808 155.274 94.0672 156.327C94.2329 157.265 95.0495 157.924 95.9703 157.924C96.0821 157.925 96.1957 157.915 96.3099 157.895ZM86.9771 153.076L151.256 143.446C152.313 143.288 153.041 142.303 152.882 141.246C152.724 140.189 151.737 139.46 150.683 139.619L86.404 149.249C85.347 149.407 84.6189 150.392 84.7771 151.449C84.9208 152.409 85.7462 153.097 86.6877 153.097C86.7837 153.097 86.8804 153.09 86.9771 153.076ZM75.3256 148.033L148.247 139.093C149.307 138.963 150.062 137.997 149.932 136.937C149.802 135.876 148.839 135.123 147.776 135.251L74.8549 144.191C73.7941 144.321 73.0396 145.286 73.1702 146.347C73.2901 147.328 74.1249 148.047 75.0883 148.047C75.1662 148.047 75.2459 148.042 75.3256 148.033ZM61.9317 142.523L144.555 134.647C145.618 134.546 146.399 133.602 146.297 132.538C146.195 131.475 145.25 130.7 144.187 130.795L61.5646 138.671C60.5007 138.772 59.7205 139.716 59.8221 140.78C59.9175 141.782 60.7599 142.532 61.746 142.532C61.8075 142.532 61.8696 142.529 61.9317 142.523ZM47.8957 136.329L139.914 130.065C140.935 130.013 141.747 129.168 141.747 128.133C141.747 127.064 140.88 126.198 139.811 126.198C139.767 126.198 139.723 126.2 139.679 126.203L47.6334 132.469C46.567 132.541 45.7617 133.464 45.8345 134.531C45.9041 135.552 46.754 136.335 47.7627 136.335C47.8066 136.333 47.8512 136.332 47.8957 136.329ZM35.0367 129.324L134.036 125.279C135.104 125.236 135.934 124.335 135.89 123.267C135.846 122.199 134.953 121.372 133.878 121.413L34.8785 125.457C33.8108 125.5 32.981 126.402 33.0243 127.469C33.067 128.51 33.9238 129.325 34.9563 129.325C34.9827 129.325 35.0097 129.325 35.0367 129.324ZM24.4899 121.588L126.165 120.202L126.168 118.266L126.139 116.332L24.4372 117.719C23.3683 117.734 22.514 118.612 22.5291 119.68C22.5435 120.739 23.4066 121.589 24.4629 121.589C24.4717 121.588 24.4811 121.588 24.4899 121.588ZM117.983 112.762C117.997 111.694 117.143 110.815 116.075 110.801L16.44 109.443C15.3667 109.418 14.4937 110.283 14.4792 111.351C14.4648 112.42 15.319 113.298 16.3873 113.312L116.022 114.67C116.031 114.67 116.04 114.67 116.049 114.67C117.105 114.671 117.968 113.821 117.983 112.762ZM104.462 106.511C104.462 105.466 103.632 104.615 102.595 104.578L10.5782 100.818C9.51369 100.776 8.60985 101.604 8.56592 102.672C8.52198 103.74 9.35238 104.64 10.42 104.684L102.447 108.445C102.473 108.446 102.499 108.447 102.526 108.447H102.529C103.598 108.447 104.462 107.58 104.462 106.511ZM86.8371 99.2713C86.8371 98.2412 86.0312 97.3996 85.0162 97.3399L6.53729 91.9972C5.46899 91.9194 4.54818 92.7303 4.47537 93.7961C4.40256 94.8619 5.20788 95.7852 6.27429 95.858L84.7689 101.202C84.8129 101.205 84.8568 101.206 84.9001 101.206H84.9038C85.9728 101.206 86.8371 100.34 86.8371 99.2713ZM68.7991 91.2151C68.9008 90.1512 68.1206 89.2066 67.0567 89.1055L4.19107 83.1131C3.12466 83.0121 2.18251 83.7923 2.08145 84.8556C1.97977 85.9195 2.75997 86.8641 3.82387 86.9652L66.6895 92.9575C66.7522 92.9638 66.8138 92.9663 66.8753 92.9663C67.8607 92.9663 68.7037 92.2163 68.7991 91.2151ZM57.8343 82.9135C57.9642 81.8528 57.2098 80.8874 56.1496 80.7575L3.04932 74.2492C1.98667 74.118 1.0232 74.8737 0.893269 75.9345C0.763341 76.9952 1.51781 77.9606 2.57795 78.0905L55.6783 84.5988C55.758 84.6089 55.8377 84.6133 55.9161 84.6133C56.8802 84.6133 57.7144 83.8946 57.8343 82.9135ZM53.7413 75.0444C53.8994 73.9874 53.1713 73.0026 52.1143 72.8445L2.829 65.4593C1.77388 65.3017 0.78718 66.0292 0.629007 67.0862C0.470834 68.1432 1.19896 69.128 2.25596 69.2862L51.5413 76.6714C51.6386 76.6858 51.7352 76.6927 51.8306 76.6927C52.7721 76.6927 53.5975 76.0042 53.7413 75.0444ZM52.9366 67.5325C53.123 66.4805 52.4213 65.4762 51.3687 65.2898L3.56715 56.8238C2.51392 56.6361 1.5109 57.3391 1.32449 58.3917C1.13807 59.4437 1.8398 60.448 2.8924 60.6344L50.6939 69.1004C50.8081 69.1205 50.9218 69.1305 51.0335 69.1305C51.9543 69.1299 52.7702 68.4702 52.9366 67.5325ZM54.2942 60.4191C54.5083 59.3721 53.8329 58.3503 52.7859 58.1363L5.37799 48.4513C4.33166 48.2366 3.30917 48.9126 3.09514 49.9596C2.8811 51.0065 3.55648 52.0284 4.60344 52.2424L52.0114 61.9274C52.1419 61.9537 52.2725 61.9669 52.4005 61.9669C53.3013 61.9675 54.1072 61.3355 54.2942 60.4191ZM58.1375 53.9541C58.3785 52.9128 57.7301 51.874 56.6888 51.6329L8.3456 40.4384C7.30429 40.1974 6.26551 40.8458 6.02386 41.8871C5.78283 42.9284 6.43121 43.9672 7.47251 44.2089L55.8157 55.4034C55.9626 55.4373 56.1095 55.4536 56.2538 55.4536C57.1345 55.4529 57.931 54.8485 58.1375 53.9541ZM65.2822 48.5548C65.5502 47.5204 64.9282 46.4647 63.8938 46.1973L12.5221 32.9039C11.4877 32.6365 10.432 33.2579 10.164 34.2923C9.89596 35.3267 10.518 36.3824 11.5524 36.6504L62.9241 49.9439C63.0867 49.9859 63.2499 50.006 63.4099 50.006C64.2711 50.006 65.0569 49.4273 65.2822 48.5548ZM77.7942 44.5258C77.7942 43.6264 77.1797 42.8706 76.3481 42.6535L17.9006 25.9342C17.7274 25.8846 17.5454 25.8595 17.3652 25.8595C16.2963 25.8595 15.432 26.7257 15.432 27.7946C15.432 28.6941 16.0465 29.4498 16.8781 29.667L75.3256 46.3862C75.4989 46.4358 75.6777 46.4609 75.8579 46.4609H75.861C76.9299 46.4609 77.7942 45.5947 77.7942 44.5258ZM101.609 45.2162C101.609 44.3356 101.021 43.5919 100.215 43.3584L24.5062 19.6437C23.4863 19.3242 22.401 19.8916 22.0816 20.9116C21.7621 21.9316 22.3301 23.0168 23.3494 23.3363L99.0792 47.0572C99.2706 47.1187 99.4715 47.1514 99.6742 47.1514C100.744 47.1514 101.609 46.2845 101.609 45.2162ZM137.475 51.9706C137.82 50.9588 137.279 49.8598 136.267 49.5152L32.3276 14.1265C31.3158 13.7825 30.2168 14.3229 29.8728 15.3347C29.5282 16.3465 30.0693 17.4456 31.0805 17.7896L135.02 53.1783C135.227 53.2486 135.437 53.2818 135.644 53.2818C136.449 53.2825 137.201 52.7753 137.475 51.9706ZM139.017 47.4514C139.386 46.4484 138.872 45.3368 137.869 44.9677L41.3241 9.46663C40.3217 9.09882 39.2094 9.61228 38.8403 10.6147C38.4713 11.6177 38.986 12.7293 39.9884 13.0983L136.534 48.5994C136.754 48.6804 136.979 48.7187 137.201 48.7187C137.989 48.7187 138.729 48.2341 139.017 47.4514ZM140.533 43.005C140.925 42.0114 140.438 40.8872 139.444 40.4949L51.4584 5.74206C50.4642 5.34977 49.3406 5.83681 48.9484 6.83041C48.5561 7.82401 49.0431 8.94819 50.0367 9.34048L138.022 44.0933C138.256 44.1856 138.496 44.2289 138.733 44.2289C139.504 44.2296 140.232 43.7657 140.533 43.005ZM142.022 38.6288C142.437 37.6447 141.976 36.5092 140.992 36.0937L62.6912 3.03366C61.7077 2.61814 60.5722 3.07885 60.1561 4.06366C59.7405 5.04785 60.2019 6.18331 61.1861 6.59883L139.487 39.6589C139.733 39.7624 139.988 39.812 140.239 39.812C140.993 39.8114 141.71 39.3676 142.022 38.6288ZM143.488 34.3218C143.926 33.347 143.491 32.2021 142.516 31.764L74.9415 1.39353C73.9667 0.955419 72.8218 1.39042 72.3837 2.36519C71.9456 3.33996 72.3806 4.4848 73.3553 4.92292L140.93 35.2934C141.187 35.4089 141.456 35.4641 141.721 35.4641C142.46 35.4641 143.166 35.0392 143.488 34.3218ZM144.927 30.0881C145.387 29.1234 144.978 27.9691 144.013 27.509L88.0491 0.828001C87.085 0.369174 85.9301 0.777156 85.47 1.74189C85.0099 2.70662 85.4192 3.86091 86.3839 4.32099L142.348 31.002C142.617 31.1301 142.9 31.191 143.179 31.191C143.902 31.191 144.595 30.7842 144.927 30.0881ZM146.347 25.9141C146.827 24.9601 146.444 23.7964 145.489 23.3156L102.28 1.54294C101.326 1.06152 100.163 1.44626 99.6817 2.40032C99.2009 3.35438 99.5845 4.51809 100.539 4.99889L143.748 26.7715C144.027 26.9121 144.324 26.9787 144.617 26.9787C145.325 26.9787 146.006 26.5895 146.347 25.9141ZM147.74 21.8104C148.242 20.8664 147.883 19.6952 146.939 19.1943L118.829 4.2595C118.108 3.85968 117.184 3.95257 116.555 4.55074C115.781 5.28762 115.752 6.51219 116.489 7.28611C116.639 7.44303 116.813 7.57296 117.004 7.67151L145.124 22.6113C145.413 22.7651 145.723 22.8379 146.03 22.8379C146.723 22.8379 147.392 22.4645 147.74 21.8104ZM149.114 17.7701C149.635 16.8374 149.302 15.6586 148.368 15.137L138.342 9.53506C138.326 9.52627 138.311 9.51812 138.295 9.50996C138.019 9.36434 137.709 9.28589 137.392 9.28589C136.323 9.28589 135.458 10.152 135.458 11.221C135.458 11.9635 135.876 12.6088 136.49 12.9327L146.482 18.5151C146.78 18.6821 147.104 18.7612 147.423 18.7612C148.102 18.7612 148.759 18.404 149.114 17.7701Z" fill="url(#paint0_linear_529_24)"/>
<defs>
<linearGradient id="paint0_linear_529_24" x1="139.789" y1="214.361" x2="18.0052" y2="214.32" gradientUnits="userSpaceOnUse">
<stop stop-color="#5F35F7"/>
<stop offset="0.559785" stop-color="#5098F7"/>
</linearGradient>
</defs>
</svg>
