<svg width="50" height="50" viewBox="0 0 50 50" fill="none" xmlns="http://www.w3.org/2000/svg">
  <path d="M24.6665 26.5963C30.7385 26.5963 35.6665 28.7792 35.6665 31.4625V36.0833H13.6665V31.4625C13.6665 28.7792 18.5945 26.5963 24.6665 26.5963ZM34.1998 31.4625C34.1998 29.5438 29.9318 27.9867 24.6665 27.9867C19.4012 27.9867 15.1332 29.5438 15.1332 31.4625L15.0469 34.6112H34.1998V31.4625ZM24.6665 14.0833C26.0279 14.0833 27.3336 14.596 28.2963 15.5086C29.259 16.4212 29.7998 17.6589 29.7998 18.9495C29.7998 20.2401 29.259 21.4778 28.2963 22.3904C27.3336 23.303 26.0279 23.8157 24.6665 23.8157C23.3051 23.8157 21.9994 23.303 21.0367 22.3904C20.074 21.4778 19.5332 20.2401 19.5332 18.9495C19.5332 17.6589 20.074 16.4212 21.0367 15.5086C21.9994 14.596 23.3051 14.0833 24.6665 14.0833ZM24.6665 15.4737C23.694 15.4737 22.7614 15.8399 22.0738 16.4917C21.3861 17.1436 20.9998 18.0276 20.9998 18.9495C20.9998 19.8713 21.3861 20.7554 22.0738 21.4073C22.7614 22.0591 23.694 22.4253 24.6665 22.4253C25.639 22.4253 26.5716 22.0591 27.2592 21.4073C27.9469 20.7554 28.3332 19.8713 28.3332 18.9495C28.3332 18.0276 27.9469 17.1436 27.2592 16.4917C26.5716 15.8399 25.639 15.4737 24.6665 15.4737Z" fill="#4784FC"/>
  <circle cx="25" cy="25" r="24.5" stroke="#4784FC"/>
</svg>