<svg width="12" height="12" viewBox="0 0 12 12" fill="none" xmlns="http://www.w3.org/2000/svg">
  <path d="M5.39041 0.372255C5.65808 -0.124085 6.34192 -0.124085 6.60959 0.372255L8.06378 3.06884C8.16363 3.254 8.33562 3.3846 8.53496 3.42664L11.438 4.03887C11.9724 4.15156 12.1837 4.83133 11.8148 5.25077L9.81044 7.52958C9.67281 7.68605 9.60712 7.89737 9.63047 8.10852L9.97048 11.1835C10.0331 11.7495 9.47982 12.1696 8.98415 11.9325L6.29121 10.6443C6.10629 10.5558 5.89371 10.5558 5.70879 10.6443L3.01585 11.9325C2.52018 12.1696 1.96693 11.7495 2.02952 11.1835L2.36953 8.10852C2.39288 7.89737 2.32719 7.68605 2.18956 7.52958L0.18521 5.25077C-0.183715 4.83133 0.0276041 4.15156 0.561954 4.03887L3.46504 3.42664C3.66438 3.3846 3.83637 3.254 3.93622 3.06884L5.39041 0.372255Z" fill="#4784FC"/>
</svg>